<svg xmlns="http://www.w3.org/2000/svg" aria-hidden="true" focusable="false" role="presentation" class="icon icon--wide icon-gs-logo-dark" viewBox="0 0 119 20"><g fill="#1D1D1B" fill-rule="nonzero"><path d="M4.829 8.85h4.273v6.17c0 3.115-1.554 4.895-4.552 4.895-2.998 0-4.55-1.78-4.55-4.896V4.896C0 1.78 1.554 0 4.55 0c2.996 0 4.552 1.78 4.552 4.896v1.89H6.215V4.7c0-1.391-.611-1.919-1.59-1.919-.977 0-1.588.531-1.588 1.919v10.52c0 1.391.609 1.892 1.589 1.892s1.589-.5 1.589-1.892v-3.594H4.829V8.85zM13.512 13.239L9.656.223h3.19l2.33 8.873L17.508.223h2.914l-3.856 13.016v6.453h-3.053zM28.106 14.046L30.188.223h4.244v19.469h-2.885V5.729L29.44 19.692h-2.886L24.278 5.924v13.768h-2.664V.223h4.246zM40.758 0c2.97 0 4.496 1.78 4.496 4.896v.61h-2.88v-.805c0-1.391-.555-1.92-1.526-1.92-.97 0-1.525.53-1.525 1.92 0 4.005 5.966 4.756 5.966 10.318 0 3.116-1.554 4.896-4.552 4.896-2.998 0-4.55-1.78-4.55-4.896v-1.196h2.885v1.398c0 1.391.611 1.892 1.59 1.892.977 0 1.588-.5 1.588-1.892 0-4.005-5.966-4.756-5.966-10.318C36.264 1.78 37.784 0 40.758 0M50.08 19.692h-3.052V.223h3.053v8.343h3.469V.223h3.107v19.469H53.55v-8.343h-3.47zM68.753 19.692H65.68l-.53-3.54H61.4l-.53 3.54h-2.798L61.179.223h4.467l3.107 19.469zm-6.958-6.175h2.94l-1.47-9.846-1.47 9.846zM76.55 19.692c-.168-.5-.277-.805-.277-2.391v-3.06c0-1.807-.61-2.478-1.999-2.478h-1.059v7.927h-3.047V.223h4.606c3.164 0 4.523 1.473 4.523 4.478v1.53c0 2.003-.639 3.309-1.998 3.95 1.525.638 2.025 2.113 2.025 4.143v3.009c0 .945.028 1.64.334 2.363l-3.108-.004zM73.22 3.009v5.975h1.194c1.137 0 1.83-.5 1.83-2.058V5.007c0-1.391-.47-2.003-1.553-2.003l-1.47.005zM85.318 11.933l-.945 1.779v5.98h-3.05V.223h3.05v8.483L88.37.223h3.053l-4.245 8.678 4.245 10.791h-3.136zM118.966.216h-25.43l18.368 3.113-7.475 11.476h-.636l-1.042 1.034-1.096-1.034h-.291l-1.056 1.052-1.05-1.052h-.356l-1.05 1.053-1.084-1.053h-3.231l4.267 1.664 1.148-.547.644 1.251.323.124 1.318-.651.69 1.455.272.092-.966 1.506z"/><path d="M96.558 4.637l7.477 1.777-3.215.354z"/></g></svg>