<svg id="Layer_1" data-name="Layer 1" xmlns="http://www.w3.org/2000/svg" viewBox="0 0 30.4 23.2"><defs><style>.cls-1{fill:#010101;}</style></defs><title>gymlogo</title><path class="cls-1" d="M0,0H30.4s-14,15.5-21,23.2a8.27,8.27,0,0,1,.9-1.6c-.3,0-.7-1.3-1-1.9l-1.2.6a.62.62,0,0,1-.8-.1c0-.1-.1-.1-.1-.2-.2-.4-.3-.8-.5-1.3a10.09,10.09,0,0,1-1.5.7L.3,17.3H3.8l1.6,1.3c.4-.4.7-1,1-1.3h.9c.3.3.6.9,1,1.3a13.58,13.58,0,0,1,1.2-1.2h.6c.3.3.7.8,1,1.1h.1s.6-.8.9-1.1h.7s9-13.5,9-13.6C14.6,2.5,0,0,0,0"/><polygon class="cls-1" points="8.9 8 3.9 5.2 12.8 7.3 8.9 8"/></svg>